<svg id="svg" version="1.1" xmlns="http://www.w3.org/2000/svg" xmlns:xlink="http://www.w3.org/1999/xlink" width="400" height="246.4" viewBox="0, 0, 400,246.4"><g id="svgg"><path id="path0" d="M0.000 123.229 L 0.000 246.457 30.930 246.457 L 61.861 246.457 61.889 166.174 C 61.905 122.018,61.969 86.084,62.031 86.322 C 62.093 86.559,62.302 86.753,62.495 86.753 C 62.688 86.753,62.847 86.919,62.847 87.123 C 62.847 87.326,62.985 87.493,63.155 87.494 C 63.324 87.495,63.727 87.883,64.049 88.357 C 64.371 88.830,64.787 89.217,64.973 89.217 C 65.159 89.217,65.311 89.384,65.311 89.587 C 65.311 89.791,65.478 89.957,65.681 89.957 C 65.884 89.957,66.051 90.055,66.051 90.174 C 66.051 90.294,66.507 90.848,67.065 91.407 C 67.624 91.965,68.178 92.421,68.298 92.421 C 68.417 92.421,68.515 92.588,68.515 92.791 C 68.515 92.994,68.681 93.161,68.885 93.161 C 69.088 93.161,69.254 93.327,69.254 93.530 C 69.254 93.734,69.360 93.900,69.490 93.900 C 69.619 93.900,70.007 94.182,70.352 94.528 C 70.697 94.873,70.980 95.261,70.980 95.390 C 70.980 95.520,71.146 95.625,71.349 95.625 C 71.553 95.625,71.719 95.792,71.719 95.995 C 71.719 96.198,71.885 96.365,72.089 96.365 C 72.292 96.365,72.458 96.531,72.458 96.734 C 72.458 96.938,72.564 97.104,72.694 97.104 C 72.823 97.104,73.211 97.386,73.556 97.731 C 73.901 98.077,74.184 98.465,74.184 98.594 C 74.184 98.723,74.350 98.829,74.553 98.829 C 74.757 98.829,74.923 98.996,74.923 99.199 C 74.923 99.402,75.089 99.569,75.293 99.569 C 75.496 99.569,75.662 99.735,75.662 99.938 C 75.662 100.142,75.768 100.308,75.898 100.308 C 76.027 100.308,76.415 100.590,76.760 100.935 C 77.105 101.280,77.388 101.669,77.388 101.798 C 77.388 101.927,77.554 102.033,77.757 102.033 C 77.961 102.033,78.127 102.200,78.127 102.403 C 78.127 102.606,78.293 102.773,78.497 102.773 C 78.700 102.773,78.866 102.939,78.866 103.142 C 78.866 103.346,79.025 103.512,79.219 103.512 C 79.414 103.512,79.643 103.734,79.729 104.005 C 79.815 104.276,80.044 104.498,80.238 104.498 C 80.433 104.498,80.591 104.664,80.591 104.868 C 80.591 105.071,80.758 105.237,80.961 105.237 C 81.165 105.237,81.331 105.404,81.331 105.607 C 81.331 105.810,81.497 105.977,81.701 105.977 C 81.904 105.977,82.070 106.143,82.070 106.346 C 82.070 106.550,82.209 106.721,82.378 106.727 C 82.548 106.734,82.908 107.016,83.179 107.355 C 84.159 108.581,84.763 109.181,85.016 109.181 C 85.158 109.181,85.274 109.347,85.274 109.550 C 85.274 109.754,85.390 109.920,85.532 109.920 C 85.804 109.920,86.561 110.685,87.342 111.749 C 87.598 112.099,87.959 112.384,88.143 112.384 C 88.327 112.384,88.478 112.551,88.478 112.754 C 88.478 112.957,88.594 113.124,88.736 113.124 C 89.008 113.124,89.765 113.889,90.546 114.953 C 90.802 115.303,91.163 115.588,91.347 115.588 C 91.531 115.588,91.682 115.755,91.682 115.958 C 91.682 116.161,91.798 116.328,91.940 116.328 C 92.212 116.328,92.969 117.093,93.750 118.157 C 94.006 118.507,94.367 118.792,94.551 118.792 C 94.735 118.792,94.886 118.959,94.886 119.162 C 94.886 119.365,95.052 119.532,95.256 119.532 C 95.459 119.532,95.625 119.698,95.625 119.901 C 95.625 120.105,95.792 120.271,95.995 120.271 C 96.198 120.271,96.367 120.410,96.369 120.579 C 96.374 120.955,97.438 121.996,97.817 121.996 C 97.967 121.996,98.090 122.163,98.090 122.366 C 98.090 122.569,98.256 122.736,98.460 122.736 C 98.663 122.736,98.829 122.895,98.829 123.089 C 98.829 123.283,99.049 123.512,99.317 123.597 C 99.586 123.682,99.782 123.828,99.753 123.921 C 99.669 124.194,100.634 125.200,100.979 125.200 C 101.152 125.200,101.294 125.367,101.294 125.570 C 101.294 125.773,101.460 125.940,101.664 125.940 C 101.867 125.940,102.033 126.046,102.033 126.176 C 102.033 126.519,103.878 128.404,104.213 128.404 C 104.370 128.404,104.498 128.571,104.498 128.774 C 104.498 128.977,104.664 129.144,104.868 129.144 C 105.071 129.144,105.237 129.310,105.237 129.513 C 105.237 129.717,105.404 129.883,105.607 129.883 C 105.810 129.883,105.977 129.988,105.977 130.117 C 105.977 130.456,107.093 131.608,107.422 131.608 C 107.576 131.608,107.702 131.774,107.702 131.978 C 107.702 132.181,107.868 132.348,108.071 132.348 C 108.275 132.348,108.441 132.514,108.441 132.717 C 108.441 132.921,108.564 133.087,108.714 133.087 C 109.033 133.087,110.072 134.345,109.982 134.622 C 109.948 134.727,110.142 134.812,110.413 134.812 C 110.687 134.812,110.906 134.976,110.906 135.182 C 110.906 135.385,111.072 135.551,111.275 135.551 C 111.479 135.551,111.645 135.718,111.645 135.921 C 111.645 136.124,111.766 136.291,111.914 136.291 C 112.252 136.291,113.105 137.297,113.116 137.708 C 113.120 137.877,113.346 138.016,113.617 138.016 C 113.891 138.016,114.110 138.180,114.110 138.386 C 114.110 138.589,114.276 138.755,114.479 138.755 C 114.683 138.755,114.849 138.922,114.849 139.125 C 114.849 139.328,114.988 139.498,115.157 139.502 C 115.327 139.505,115.742 139.890,116.081 140.357 C 116.420 140.824,116.836 141.209,117.006 141.213 C 117.175 141.217,117.314 141.386,117.314 141.590 C 117.314 141.793,117.480 141.959,117.683 141.959 C 117.887 141.959,118.053 142.126,118.053 142.329 C 118.053 142.532,118.155 142.699,118.280 142.699 C 118.583 142.699,120.518 144.625,120.518 144.926 C 120.518 145.057,120.684 145.163,120.887 145.163 C 121.091 145.163,121.257 145.330,121.257 145.533 C 121.257 145.736,121.359 145.903,121.484 145.903 C 121.787 145.903,123.722 147.829,123.722 148.130 C 123.722 148.261,123.888 148.367,124.091 148.367 C 124.295 148.367,124.461 148.534,124.461 148.737 C 124.461 148.983,124.707 149.107,125.200 149.107 C 125.693 149.107,125.940 148.983,125.940 148.737 C 125.940 148.534,126.106 148.367,126.309 148.367 C 126.513 148.367,126.679 148.201,126.679 147.998 C 126.679 147.794,126.818 147.626,126.987 147.624 C 127.363 147.618,128.404 146.555,128.404 146.176 C 128.404 146.026,128.571 145.903,128.774 145.903 C 128.977 145.903,129.144 145.736,129.144 145.533 C 129.144 145.330,129.310 145.163,129.513 145.163 C 129.717 145.163,129.883 144.997,129.883 144.794 C 129.883 144.590,130.022 144.422,130.191 144.420 C 130.567 144.414,131.608 143.351,131.608 142.972 C 131.608 142.822,131.774 142.699,131.978 142.699 C 132.181 142.699,132.348 142.532,132.348 142.329 C 132.348 142.126,132.514 141.959,132.717 141.959 C 132.921 141.959,133.087 141.793,133.087 141.590 C 133.087 141.386,133.182 141.220,133.297 141.220 C 133.608 141.220,134.812 140.053,134.812 139.753 C 134.812 139.611,134.978 139.495,135.182 139.495 C 135.385 139.495,135.551 139.328,135.551 139.125 C 135.551 138.922,135.718 138.755,135.921 138.755 C 136.124 138.755,136.291 138.639,136.291 138.497 C 136.291 138.197,137.495 137.030,137.806 137.030 C 137.921 137.030,138.016 136.864,138.016 136.661 C 138.016 136.457,138.182 136.291,138.386 136.291 C 138.589 136.291,138.755 136.124,138.755 135.921 C 138.755 135.718,138.922 135.551,139.125 135.551 C 139.328 135.551,139.495 135.385,139.495 135.182 C 139.495 134.978,139.661 134.812,139.864 134.812 C 140.068 134.812,140.234 134.653,140.234 134.459 C 140.234 134.265,140.456 134.036,140.727 133.949 C 140.998 133.863,141.220 133.634,141.220 133.440 C 141.220 133.246,141.386 133.087,141.590 133.087 C 141.793 133.087,141.959 132.921,141.959 132.717 C 141.959 132.514,142.126 132.348,142.329 132.348 C 142.532 132.348,142.699 132.181,142.699 131.978 C 142.699 131.774,142.865 131.608,143.068 131.608 C 143.272 131.608,143.438 131.502,143.438 131.373 C 143.438 131.243,143.720 130.855,144.065 130.510 C 144.410 130.165,144.799 129.883,144.928 129.883 C 145.057 129.883,145.163 129.717,145.163 129.513 C 145.163 129.310,145.330 129.144,145.533 129.144 C 145.736 129.144,145.903 128.977,145.903 128.774 C 145.903 128.571,146.069 128.404,146.272 128.404 C 146.476 128.404,146.642 128.238,146.642 128.035 C 146.642 127.831,146.748 127.665,146.877 127.665 C 147.007 127.665,147.395 127.383,147.740 127.037 C 148.085 126.692,148.367 126.304,148.367 126.175 C 148.367 126.045,148.534 125.940,148.737 125.940 C 148.940 125.940,149.107 125.773,149.107 125.570 C 149.107 125.367,149.273 125.200,149.476 125.200 C 149.680 125.200,149.846 125.047,149.846 124.859 C 149.846 124.672,150.068 124.460,150.339 124.389 C 150.610 124.319,150.832 124.084,150.832 123.868 C 150.832 123.652,150.998 123.475,151.201 123.475 C 151.405 123.475,151.571 123.309,151.571 123.105 C 151.571 122.902,151.738 122.736,151.941 122.736 C 152.144 122.736,152.311 122.569,152.311 122.366 C 152.311 122.163,152.416 121.996,152.544 121.996 C 152.811 121.996,154.036 120.911,154.036 120.674 C 154.036 120.423,154.998 119.532,155.268 119.532 C 155.404 119.532,155.514 119.365,155.514 119.162 C 155.514 118.959,155.681 118.792,155.884 118.792 C 156.087 118.792,156.254 118.690,156.254 118.565 C 156.254 118.263,158.180 116.328,158.481 116.328 C 158.612 116.328,158.718 116.161,158.718 115.958 C 158.718 115.755,158.885 115.588,159.088 115.588 C 159.291 115.588,159.458 115.422,159.458 115.219 C 159.458 115.015,159.624 114.849,159.827 114.849 C 160.031 114.849,160.197 114.754,160.197 114.639 C 160.197 114.328,161.364 113.124,161.664 113.124 C 161.806 113.124,161.922 112.957,161.922 112.754 C 161.922 112.551,162.089 112.384,162.292 112.384 C 162.495 112.384,162.662 112.218,162.662 112.015 C 162.662 111.811,162.832 111.645,163.039 111.645 C 163.247 111.645,163.488 111.459,163.575 111.233 C 163.777 110.706,164.559 109.920,164.880 109.920 C 165.015 109.920,165.126 109.754,165.126 109.550 C 165.126 109.347,165.293 109.181,165.496 109.181 C 165.699 109.181,165.866 109.014,165.866 108.811 C 165.866 108.608,166.036 108.441,166.243 108.441 C 166.451 108.441,166.692 108.256,166.779 108.029 C 166.981 107.502,167.763 106.716,168.084 106.716 C 168.219 106.716,168.330 106.550,168.330 106.346 C 168.330 106.143,168.497 105.977,168.700 105.977 C 168.903 105.977,169.070 105.810,169.070 105.607 C 169.070 105.404,169.222 105.237,169.408 105.237 C 169.593 105.237,170.009 104.850,170.332 104.376 C 170.654 103.903,171.057 103.515,171.226 103.514 C 171.396 103.513,171.534 103.346,171.534 103.142 C 171.534 102.939,171.701 102.773,171.904 102.773 C 172.107 102.773,172.274 102.606,172.274 102.403 C 172.274 102.200,172.409 102.033,172.574 102.033 C 172.897 102.033,173.999 100.860,173.999 100.516 C 173.999 100.402,174.165 100.308,174.368 100.308 C 174.572 100.308,174.738 100.142,174.738 99.938 C 174.738 99.735,174.904 99.569,175.108 99.569 C 175.311 99.569,175.478 99.402,175.478 99.199 C 175.478 98.996,175.616 98.827,175.786 98.825 C 176.161 98.820,177.203 97.756,177.203 97.377 C 177.203 97.227,177.369 97.104,177.572 97.104 C 177.776 97.104,177.942 96.938,177.942 96.734 C 177.942 96.531,178.108 96.365,178.312 96.365 C 178.515 96.365,178.681 96.198,178.681 95.995 C 178.681 95.792,178.820 95.623,178.990 95.621 C 179.365 95.616,180.407 94.552,180.407 94.174 C 180.407 94.023,180.573 93.900,180.776 93.900 C 180.980 93.900,181.146 93.734,181.146 93.530 C 181.146 93.327,181.312 93.161,181.516 93.161 C 181.719 93.161,181.885 92.994,181.885 92.791 C 181.885 92.588,181.979 92.421,182.094 92.421 C 182.437 92.421,183.611 91.319,183.611 90.996 C 183.611 90.831,183.777 90.696,183.980 90.696 C 184.184 90.696,184.350 90.530,184.350 90.327 C 184.350 90.123,184.516 89.957,184.720 89.957 C 184.923 89.957,185.089 89.846,185.089 89.710 C 185.089 89.389,185.876 88.607,186.402 88.405 C 186.629 88.318,186.815 88.077,186.815 87.870 C 186.815 87.662,186.981 87.492,187.184 87.492 C 187.512 87.492,187.554 96.488,187.554 166.975 L 187.554 246.457 218.731 246.457 L 249.908 246.457 249.908 165.496 L 249.908 84.535 293.900 84.535 L 337.893 84.535 337.893 165.496 L 337.893 246.457 368.946 246.457 L 400.000 246.457 400.000 123.229 L 400.000 0.000 324.955 0.000 L 249.909 0.000 249.847 30.869 L 249.784 61.738 218.792 61.800 L 187.800 61.863 187.800 31.316 C 187.800 10.113,187.721 0.719,187.540 0.607 C 187.396 0.519,186.890 0.848,186.413 1.338 C 185.937 1.828,185.278 2.406,184.949 2.622 C 184.619 2.838,184.350 3.107,184.350 3.221 C 184.350 3.511,181.914 5.915,181.619 5.915 C 181.486 5.915,181.308 6.095,181.224 6.314 C 181.028 6.825,179.479 8.380,179.166 8.380 C 179.035 8.380,178.928 8.546,178.928 8.749 C 178.928 8.953,178.758 9.119,178.550 9.119 C 178.343 9.119,178.105 9.296,178.022 9.512 C 177.826 10.023,175.642 12.207,175.132 12.403 C 174.915 12.486,174.738 12.663,174.738 12.796 C 174.738 13.108,172.326 15.527,172.015 15.527 C 171.886 15.527,171.781 15.626,171.781 15.746 C 171.781 16.048,169.117 18.731,168.818 18.731 C 168.685 18.731,168.577 18.842,168.577 18.977 C 168.577 19.299,165.694 22.181,165.373 22.181 C 165.237 22.181,165.126 22.290,165.126 22.422 C 165.126 22.722,162.443 25.385,162.142 25.385 C 162.021 25.385,161.922 25.494,161.922 25.626 C 161.922 25.926,159.239 28.589,158.938 28.589 C 158.817 28.589,158.718 28.698,158.718 28.830 C 158.718 29.130,156.035 31.793,155.734 31.793 C 155.613 31.793,155.514 31.911,155.514 32.055 C 155.514 32.378,153.233 34.628,152.698 34.833 C 152.485 34.915,152.311 35.151,152.311 35.359 C 152.311 35.566,152.144 35.736,151.941 35.736 C 151.738 35.736,151.598 35.819,151.630 35.921 C 151.707 36.165,150.020 37.835,149.490 38.038 C 149.262 38.126,149.149 38.317,149.239 38.462 C 149.330 38.609,149.172 38.787,148.885 38.862 C 148.600 38.937,148.367 39.092,148.367 39.207 C 148.367 39.444,146.706 41.158,146.477 41.158 C 146.316 41.158,145.163 42.351,145.163 42.518 C 145.163 42.680,143.439 44.362,143.273 44.362 C 143.112 44.362,141.959 45.555,141.959 45.722 C 141.959 45.857,140.248 47.566,140.114 47.566 C 139.979 47.566,138.755 48.789,138.755 48.925 C 138.755 49.059,137.046 50.770,136.911 50.770 C 136.744 50.770,135.551 51.923,135.551 52.084 C 135.551 52.329,133.828 53.974,133.572 53.974 C 133.441 53.974,133.333 54.140,133.333 54.344 C 133.333 54.547,133.163 54.713,132.956 54.713 C 132.748 54.713,132.510 54.893,132.425 55.113 C 132.229 55.624,130.681 57.178,130.368 57.178 C 130.237 57.178,130.129 57.344,130.129 57.548 C 130.129 57.751,129.960 57.917,129.752 57.917 C 129.544 57.917,129.308 58.092,129.226 58.305 C 129.029 58.819,126.636 61.260,126.401 61.188 C 126.299 61.157,126.150 61.341,126.068 61.597 C 125.787 62.484,124.615 62.489,124.334 61.604 C 124.247 61.330,124.045 61.202,123.829 61.285 C 123.576 61.382,123.515 61.305,123.621 61.028 C 123.716 60.781,123.613 60.571,123.348 60.470 C 122.799 60.259,121.380 58.840,121.169 58.291 C 121.077 58.050,120.853 57.925,120.651 58.003 C 120.415 58.093,120.342 58.020,120.433 57.782 C 120.509 57.585,120.461 57.425,120.327 57.425 C 119.991 57.425,118.175 55.633,117.970 55.099 C 117.874 54.849,117.651 54.721,117.447 54.799 C 117.211 54.889,117.138 54.816,117.229 54.578 C 117.305 54.381,117.257 54.221,117.123 54.221 C 116.787 54.221,114.971 52.429,114.766 51.895 C 114.674 51.655,114.447 51.517,114.261 51.588 C 114.055 51.667,113.936 51.560,113.955 51.311 C 113.973 51.088,113.876 50.901,113.740 50.897 C 113.420 50.885,111.645 49.101,111.645 48.790 C 111.645 48.568,111.285 48.451,110.832 48.527 C 110.724 48.545,110.669 48.367,110.709 48.130 C 110.750 47.894,110.672 47.697,110.536 47.692 C 110.226 47.682,108.441 45.902,108.441 45.603 C 108.441 45.481,108.219 45.311,107.948 45.225 C 107.677 45.139,107.455 44.910,107.455 44.715 C 107.455 44.521,107.348 44.362,107.217 44.362 C 106.917 44.362,105.237 42.697,105.237 42.399 C 105.237 42.277,105.015 42.107,104.744 42.021 C 104.473 41.935,104.251 41.706,104.251 41.511 C 104.251 41.317,104.144 41.158,104.013 41.158 C 103.703 41.158,102.033 39.489,102.033 39.178 C 102.033 39.047,101.857 38.940,101.641 38.940 C 101.424 38.940,101.190 38.718,101.119 38.447 C 101.048 38.176,100.896 37.954,100.780 37.954 C 100.491 37.954,98.829 36.268,98.829 35.975 C 98.829 35.843,98.670 35.736,98.476 35.736 C 98.282 35.736,98.053 35.514,97.967 35.243 C 97.881 34.972,97.707 34.750,97.580 34.750 C 97.274 34.750,96.365 33.829,96.365 33.518 C 96.365 33.383,96.261 33.272,96.134 33.272 C 95.834 33.272,93.161 30.599,93.161 30.298 C 93.161 30.171,93.057 30.068,92.930 30.068 C 92.630 30.068,89.957 27.395,89.957 27.094 C 89.957 26.968,89.853 26.864,89.726 26.864 C 89.426 26.864,86.753 24.191,86.753 23.890 C 86.753 23.764,86.647 23.660,86.517 23.660 C 86.174 23.660,84.288 21.816,84.288 21.480 C 84.288 21.323,84.122 21.195,83.919 21.195 C 83.715 21.195,83.549 21.029,83.549 20.826 C 83.549 20.622,83.433 20.456,83.291 20.456 C 82.990 20.456,81.824 19.251,81.824 18.941 C 81.824 18.825,81.657 18.731,81.454 18.731 C 81.251 18.731,81.084 18.564,81.084 18.361 C 81.084 18.158,80.918 17.991,80.715 17.991 C 80.511 17.991,80.345 17.825,80.345 17.622 C 80.345 17.418,80.229 17.252,80.087 17.252 C 79.786 17.252,78.620 16.048,78.620 15.737 C 78.620 15.622,78.453 15.527,78.250 15.527 C 78.047 15.527,77.880 15.360,77.880 15.157 C 77.880 14.954,77.714 14.787,77.511 14.787 C 77.307 14.787,77.141 14.621,77.141 14.418 C 77.141 14.214,77.025 14.048,76.883 14.048 C 76.611 14.048,75.854 13.283,75.073 12.219 C 74.817 11.869,74.457 11.583,74.272 11.583 C 74.088 11.583,73.937 11.417,73.937 11.214 C 73.937 11.010,73.826 10.844,73.691 10.844 C 73.409 10.844,72.458 9.948,72.458 9.681 C 72.458 9.450,71.211 8.380,70.941 8.380 C 70.827 8.380,70.733 8.213,70.733 8.010 C 70.733 7.807,70.622 7.640,70.487 7.640 C 70.205 7.640,69.254 6.744,69.254 6.477 C 69.254 6.246,68.007 5.176,67.737 5.176 C 67.623 5.176,67.529 5.009,67.529 4.806 C 67.529 4.603,67.418 4.436,67.283 4.436 C 67.001 4.436,66.051 3.540,66.051 3.273 C 66.051 3.042,64.803 1.972,64.533 1.972 C 64.419 1.972,64.325 1.805,64.325 1.602 C 64.325 1.399,64.209 1.232,64.067 1.232 C 63.925 1.232,63.552 0.955,63.238 0.616 L 62.667 -0.000 31.333 -0.000 L 0.000 0.000 0.000 123.229 " stroke="none" fill="#343434" fill-rule="evenodd"></path><path id="path1" d="M187.554 0.197 C 187.554 0.306,187.664 0.505,187.799 0.640 C 187.959 0.799,188.067 11.480,188.107 31.188 L 188.170 61.491 218.792 61.554 L 249.415 61.616 249.415 30.808 L 249.415 0.000 218.484 0.000 C 201.473 0.000,187.554 0.089,187.554 0.197 " stroke="none" fill="#ec1c24" fill-rule="evenodd"></path><path id="path2" d="M61.982 166.235 C 61.982 210.425,62.011 228.466,62.046 206.326 C 62.080 184.187,62.080 148.031,62.046 125.981 C 62.011 103.931,61.982 122.046,61.982 166.235 M124.769 149.276 C 125.006 149.338,125.394 149.338,125.632 149.276 C 125.869 149.214,125.675 149.164,125.200 149.164 C 124.726 149.164,124.532 149.214,124.769 149.276 " stroke="none" fill="#34382c" fill-rule="evenodd"></path><path id="path3" d="M249.415 30.808 L 249.415 61.616 218.792 61.554 L 188.170 61.491 188.107 31.188 C 188.073 14.522,187.962 0.803,187.861 0.701 C 187.760 0.600,187.706 14.320,187.741 31.190 L 187.804 61.863 218.794 61.800 L 249.784 61.738 249.847 30.869 C 249.889 10.333,249.827 0.000,249.662 0.000 C 249.498 0.000,249.415 10.354,249.415 30.808 " stroke="none" fill="#64282c" fill-rule="evenodd"></path></g></svg>